/usr/bin/start-video-rec.sh: line 93: kill: (669) - No such process
ffmpeg version 2.8.17-0ubuntu0.1 Copyright (c) 2000-2020 the FFmpeg developers
  built with gcc 5.4.0 (Ubuntu 5.4.0-6ubuntu1~16.04.12) 20160609
  configuration: --prefix=/usr --extra-version=0ubuntu0.1 --build-suffix=-ffmpeg --toolchain=hardened --libdir=/usr/lib/x86_64-linux-gnu --incdir=/usr/include/x86_64-linux-gnu --cc=cc --cxx=g++ --enable-gpl --enable-shared --disable-stripping --disable-decoder=libopenjpeg --disable-decoder=libschroedinger --enable-avresample --enable-avisynth --enable-gnutls --enable-ladspa --enable-libass --enable-libbluray --enable-libbs2b --enable-libcaca --enable-libcdio --enable-libflite --enable-libfontconfig --enable-libfreetype --enable-libfribidi --enable-libgme --enable-libgsm --enable-libmodplug --enable-libmp3lame --enable-libopenjpeg --enable-libopus --enable-libpulse --enable-librtmp --enable-libschroedinger --enable-libshine --enable-libsnappy --enable-libsoxr --enable-libspeex --enable-libssh --enable-libtheora --enable-libtwolame --enable-libvorbis --enable-libvpx --enable-libwavpack --enable-libwebp --enable-libx265 --enable-libxvid --enable-libzvbi --enable-openal --enable-opengl --enable-x11grab --enable-libdc1394 --enable-libiec61883 --enable-libzmq --enable-frei0r --enable-libx264 --enable-libopencv
  libavutil      54. 31.100 / 54. 31.100
  libavcodec     56. 60.100 / 56. 60.100
  libavformat    56. 40.101 / 56. 40.101
  libavdevice    56.  4.100 / 56.  4.100
  libavfilter     5. 40.101 /  5. 40.101
  libavresample   2.  1.  0 /  2.  1.  0
  libswscale      3.  1.101 /  3.  1.101
  libswresample   1.  2.101 /  1.  2.101
  libpostproc    53.  3.100 / 53.  3.100
Input #0, matroska,webm, from '/home/seluser/videos/vid_chrome_or_firefox_40003.mkv':
  Metadata:
    ENCODER         : Lavf56.40.101
  Duration: 00:00:52.10, start: 0.000000, bitrate: 223 kb/s
    Stream #0:0: Video: h264 (Constrained Baseline), yuv420p, 1366x768, SAR 1:1 DAR 683:384, 10 fps, 10 tbr, 1k tbn, 20 tbc (default)
    Metadata:
      ENCODER         : Lavc56.60.100 libx264
      DURATION        : 00:00:52.100000000
[libx264 @ 0xc206e0] using SAR=1/1
[libx264 @ 0xc206e0] using cpu capabilities: MMX2 SSE2Fast SSSE3 SSE4.2 AVX FMA3 AVX2 LZCNT BMI2
[libx264 @ 0xc206e0] profile Constrained Baseline, level 3.2
[libx264 @ 0xc206e0] 264 - core 148 r2643 5c65704 - H.264/MPEG-4 AVC codec - Copyleft 2003-2015 - http://www.videolan.org/x264.html - options: cabac=0 ref=1 deblock=0:0:0 analyse=0:0 me=dia subme=0 psy=1 psy_rd=1.00:0.00 mixed_ref=0 me_range=16 chroma_me=1 trellis=0 8x8dct=0 cqm=0 deadzone=21,11 fast_pskip=1 chroma_qp_offset=0 threads=3 lookahead_threads=1 sliced_threads=0 nr=0 decimate=1 interlaced=0 bluray_compat=0 constrained_intra=0 bframes=0 weightp=0 keyint=250 keyint_min=10 scenecut=0 intra_refresh=0 rc=crf mbtree=0 crf=23.0 qcomp=0.60 qpmin=0 qpmax=69 qpstep=4 ip_ratio=1.40 aq=0
Output #0, mp4, to '/home/seluser/videos/vid_chrome_or_firefox_40003.mp4':
  Metadata:
    encoder         : Lavf56.40.101
    Stream #0:0: Video: h264 (libx264) ([33][0][0][0] / 0x0021), yuv420p, 1366x768 [SAR 1:1 DAR 683:384], q=-1--1, 10 fps, 10240 tbn, 10 tbc (default)
    Metadata:
      DURATION        : 00:00:52.100000000
      encoder         : Lavc56.60.100 libx264
Stream mapping:
  Stream #0:0 -> #0:0 (h264 (native) -> h264 (libx264))
Press [q] to stop, [?] for help
frame=   25 fps=0.0 q=9.0 size=      29kB time=00:00:02.10 bitrate= 112.3kbits/s    
frame=   44 fps= 42 q=9.0 size=      56kB time=00:00:04.00 bitrate= 115.0kbits/s    
frame=   83 fps= 54 q=9.0 size=     125kB time=00:00:07.90 bitrate= 130.1kbits/s    
frame=  110 fps= 53 q=15.0 size=     209kB time=00:00:10.60 bitrate= 161.4kbits/s    
frame=  133 fps= 51 q=10.0 size=     280kB time=00:00:12.90 bitrate= 177.8kbits/s    
frame=  145 fps= 44 q=14.0 size=     303kB time=00:00:14.10 bitrate= 176.3kbits/s    
frame=  162 fps= 42 q=10.0 size=     354kB time=00:00:15.80 bitrate= 183.8kbits/s    
frame=  171 fps= 39 q=10.0 size=     381kB time=00:00:16.70 bitrate= 186.9kbits/s    
frame=  190 fps= 39 q=9.0 size=     388kB time=00:00:18.60 bitrate= 171.1kbits/s    
frame=  201 fps= 37 q=10.0 size=     479kB time=00:00:19.70 bitrate= 199.2kbits/s    
frame=  218 fps= 37 q=17.0 size=     571kB time=00:00:21.40 bitrate= 218.4kbits/s    
frame=  236 fps= 37 q=9.0 size=     700kB time=00:00:23.20 bitrate= 247.0kbits/s    
frame=  262 fps= 38 q=14.0 size=     930kB time=00:00:25.80 bitrate= 295.3kbits/s    
frame=  285 fps= 38 q=9.0 size=     947kB time=00:00:28.10 bitrate= 276.2kbits/s    
frame=  311 fps= 39 q=9.0 size=     949kB time=00:00:30.70 bitrate= 253.1kbits/s    
frame=  335 fps= 39 q=9.0 size=     950kB time=00:00:33.10 bitrate= 235.1kbits/s    
frame=  368 fps= 41 q=10.0 size=     951kB time=00:00:36.40 bitrate= 214.1kbits/s    
frame=  397 fps= 42 q=9.0 size=    1033kB time=00:00:39.30 bitrate= 215.4kbits/s    
frame=  429 fps= 43 q=9.0 size=    1241kB time=00:00:42.50 bitrate= 239.2kbits/s    
frame=  459 fps= 44 q=9.0 size=    1243kB time=00:00:45.50 bitrate= 223.8kbits/s    
frame=  487 fps= 44 q=9.0 size=    1244kB time=00:00:48.30 bitrate= 211.1kbits/s    
frame=  519 fps= 45 q=9.0 size=    1411kB time=00:00:51.50 bitrate= 224.5kbits/s    
frame=  521 fps= 45 q=-1.0 Lsize=    1416kB time=00:00:52.10 bitrate= 222.6kbits/s    
video:1413kB audio:0kB subtitle:0kB other streams:0kB global headers:0kB muxing overhead: 0.202192%
[libx264 @ 0xc206e0] frame I:3     Avg QP:11.00  size:116807
[libx264 @ 0xc206e0] frame P:518   Avg QP:10.21  size:  2115
[libx264 @ 0xc206e0] mb I  I16..4: 100.0%  0.0%  0.0%
[libx264 @ 0xc206e0] mb P  I16..4:  1.8%  0.0%  0.0%  P16..4:  2.1%  0.0%  0.0%  0.0%  0.0%    skip:96.1%
[libx264 @ 0xc206e0] coded y,uvDC,uvAC intra: 15.2% 10.4% 9.6% inter: 0.8% 1.1% 0.5%
[libx264 @ 0xc206e0] i16 v,h,dc,p: 71% 26%  2%  1%
[libx264 @ 0xc206e0] i8c dc,h,v,p: 79% 17%  3%  1%
[libx264 @ 0xc206e0] kb/s:222.04
